<?xml version="1.0" standalone="no"?>
<svg version="1.1" xmlns="http://www.w3.org/2000/svg" width="64" height="64">
  <path d="M512 0c-282.77 0-512 71.634-512 160v96l384 384v320c0 35.346 57.306 64 128 64 70.692 0 128-28.654 128-64v-320l384-384v-96c0-88.366-229.23-160-512-160zM94.384 138.824c23.944-13.658 57.582-26.62 97.278-37.488 87.944-24.076 201.708-37.336 320.338-37.336 118.628 0 232.394 13.26 320.338 37.336 39.696 10.868 73.334 23.83 97.28 37.488 15.792 9.006 24.324 16.624 28.296 21.176-3.972 4.552-12.506 12.168-28.296 21.176-23.946 13.658-57.584 26.62-97.28 37.488-87.942 24.076-201.708 37.336-320.338 37.336s-232.394-13.26-320.338-37.336c-39.696-10.868-73.334-23.83-97.278-37.488-15.792-9.008-24.324-16.624-28.298-21.176 3.974-4.552 12.506-12.168 28.298-21.176z" transform=""/>
</svg>