<?xml version="1.0" standalone="no"?>
<svg version="1.1" xmlns="http://www.w3.org/2000/svg" width="64" height="64">
  <path d="M1016.988 652.010l-256-320c-6.074-7.592-15.266-12.010-24.988-12.010h-448c-9.72 0-18.916 4.418-24.988 12.010l-256 320c-4.538 5.674-7.012 12.724-7.012 19.99v288c0 35.346 28.654 64 64 64h896c35.348 0 64-28.654 64-64v-288c0-7.266-2.472-14.316-7.012-19.99zM960 704h-224l-128 128h-192l-128-128h-224v-20.776l239.38-299.224h417.24l239.38 299.224v20.776z" transform=""/>
  <path d="M736 512h-448c-17.672 0-32-14.328-32-32s14.328-32 32-32h448c17.674 0 32 14.328 32 32s-14.326 32-32 32z" transform=""/>
  <path d="M800 640h-576c-17.672 0-32-14.326-32-32s14.328-32 32-32h576c17.674 0 32 14.326 32 32s-14.326 32-32 32z" transform=""/>
</svg>